<?xml version="1.0" encoding="UTF-8"?>
<svg version="1.1" xmlns="http://www.w3.org/2000/svg" width="300" height="100">
<path d="M0 0 C99 0 198 0 300 0 C300 33 300 66 300 100 C201 100 102 100 0 100 C0 67 0 34 0 0 Z " fill="#FDFEFD" transform="translate(0,0)"/>
<path d="M0 0 C1.65 0 3.3 0 5 0 C5 15.51 5 31.02 5 47 C3.35 47 1.7 47 0 47 C-0.33 46.34 -0.66 45.68 -1 45 C-1.515625 45.495 -2.03125 45.99 -2.5625 46.5 C-5.9129075 48.56178923 -8.12391554 48.40800889 -12 48 C-16.25278077 45.97026372 -19.11811626 43.81018241 -21.1875 39.5625 C-22.6421405 33.18446086 -23.44432831 25.94826793 -20.375 19.9375 C-17.71289887 16.64490123 -16.00568183 15.33522728 -12 14 C-6.62059048 13.44350936 -5.47722352 13.64208236 -1 17 C-0.67 11.39 -0.34 5.78 0 0 Z " fill="#484848" transform="translate(231,26)"/>
<path d="M0 0 C1.25103516 0.06574219 1.25103516 0.06574219 2.52734375 0.1328125 C6.48195346 1.29055648 7.7237162 2.41180091 10.0625 5.875 C10.82364264 10.47469996 10.85332762 15.03275482 10.875 19.6875 C10.90013672 20.95271484 10.92527344 22.21792969 10.95117188 23.52148438 C11.01000491 26.63963543 11.04631506 29.75638367 11.0625 32.875 C9.0825 32.875 7.1025 32.875 5.0625 32.875 C4.7325 32.215 4.4025 31.555 4.0625 30.875 C3.216875 31.37 2.37125 31.865 1.5 32.375 C-2.44032122 34.09441289 -4.68470893 34.48254158 -8.9375 33.875 C-12.375 31.9375 -12.375 31.9375 -14.9375 28.875 C-15.67127885 25.72703272 -15.62262456 23.02893545 -14.9375 19.875 C-12.37756165 16.03509247 -9.36739465 14.85942103 -4.9375 13.875 C-1.5963431 13.72494804 1.7208218 13.75612607 5.0625 13.875 C4.4025 11.565 3.7425 9.255 3.0625 6.875 C1.62609829 6.67926392 0.18830496 6.49372184 -1.25 6.3125 C-2.05050781 6.20808594 -2.85101563 6.10367188 -3.67578125 5.99609375 C-6.10567116 5.72744822 -6.10567116 5.72744822 -8.9375 6.875 C-8.9375 7.865 -8.9375 8.855 -8.9375 9.875 C-10.9175 9.875 -12.8975 9.875 -14.9375 9.875 C-14.46393877 5.61294894 -12.09051808 3.58806207 -8.9375 0.875 C-5.89282238 -0.19319572 -3.20212178 -0.22696087 0 0 Z " fill="#484848" transform="translate(104.9375,40.125)"/>
<path d="M0 0 C3.94581394 2.40179979 5.90062301 4.50254867 7 9 C7 11.97 7 14.94 7 18 C-0.26 18 -7.52 18 -15 18 C-12.81940167 24.84825895 -12.81940167 24.84825895 -9 27 C-4.28135516 27.36991148 -4.28135516 27.36991148 0.125 25.9375 C2.69747041 24.6512648 4.2992139 25.24978164 7 26 C5.99782403 29.22923368 4.94375261 30.0339828 2 31.8125 C-2.6987801 33.58803068 -7.1982696 33.28942678 -12 32 C-15.4951001 30.19862398 -17.53920111 27.87970696 -19.375 24.375 C-20.59255313 17.80021312 -21.31606975 11.52363423 -17.9375 5.5 C-13.20932642 -0.96803521 -7.34326896 -1.77659733 0 0 Z " fill="#484848" transform="translate(196,41)"/>
<path d="M0 0 C3.0625 2.5 3.0625 2.5 5 5 C5.33 5.33 5.66 5.66 6 6 C6.04063832 7.66617115 6.042721 9.33388095 6 11 C3.6875 11.3125 3.6875 11.3125 1 11 C-0.75 8.5625 -0.75 8.5625 -2 6 C-3.22321622 4.56079099 -3.22321622 4.56079099 -6.875 4.6875 C-10.28283998 4.69228565 -10.28283998 4.69228565 -12.9375 6.8125 C-15.66330347 12.42444831 -15.91677339 18.06632516 -14.0625 24 C-11.26416968 26.71353243 -8.95246653 26.76364423 -5.15625 27.0546875 C-2.81416585 27.10031808 -2.81416585 27.10031808 0 26 C0.73323796 23.98491642 0.73323796 23.98491642 1 22 C2.65 22 4.3 22 6 22 C5.51999859 26.32001266 4.38496591 28.27322191 1 31 C-2.91212793 33.34727676 -6.39011008 33.23095922 -10.78125 32.6015625 C-14.59809697 31.56671314 -16.32720722 29.93355305 -19 27 C-21.7817718 21.56290058 -21.93341207 14.8430325 -20.5 8.94140625 C-18.91764081 4.76074134 -16.70295988 2.40692392 -13 0 C-8.57328502 -1.47557166 -4.51596977 -1.08037554 0 0 Z " fill="#494949" transform="translate(143,41)"/>
<path d="M0 0 C2.19140625 1.5234375 2.19140625 1.5234375 4 4 C4.40100915 6.83065284 4.56122899 9.18346659 4.5 12 C4.51546875 12.7115625 4.5309375 13.423125 4.546875 14.15625 C4.52126356 17.5881823 4.23548356 19.66284233 2.25390625 22.5 C-1.06805718 24.71080408 -3.14104909 24.22873923 -6.94140625 23.6171875 C-9 23 -9 23 -11 21.125 C-13.05324414 16.7618562 -13.51318663 12.76273203 -13 8 C-10.3321414 1.13979216 -7.37902156 -0.77673911 0 0 Z " fill="#F9F9F9" transform="translate(227,45)"/>
<path d="M0 0 C2.97672584 1.77280561 5.42804007 3.85608015 7 7 C7.04053539 11.19946671 6.67640997 14.87265006 4.5 18.5 C0.76338528 20.74196883 -2.65801332 21.41316482 -7 21 C-10.77082851 18.9799133 -12.33622284 17.85517207 -13.76171875 13.87109375 C-14.36863047 10.58040725 -14.60190276 8.13091886 -13 5.12109375 C-9.03471888 0.22349951 -6.18506574 -0.61850657 0 0 Z " fill="#05FF8C" transform="translate(260,52)"/>
<path d="M0 0 C2.97672584 1.77280561 5.42804007 3.85608015 7 7 C7.04053539 11.19946671 6.67640997 14.87265006 4.5 18.5 C0.76338528 20.74196883 -2.65801332 21.41316482 -7 21 C-10.77082851 18.9799133 -12.33622284 17.85517207 -13.76171875 13.87109375 C-14.36863047 10.58040725 -14.60190276 8.13091886 -13 5.12109375 C-9.03471888 0.22349951 -6.18506574 -0.61850657 0 0 Z " fill="#05FF8C" transform="translate(285,26)"/>
<path d="M0 0 C2.97672584 1.77280561 5.42804007 3.85608015 7 7 C7.04053539 11.19946671 6.67640997 14.87265006 4.5 18.5 C0.76338528 20.74196883 -2.65801332 21.41316482 -7 21 C-10.77082851 18.9799133 -12.33622284 17.85517207 -13.76171875 13.87109375 C-14.36863047 10.58040725 -14.60190276 8.13091886 -13 5.12109375 C-9.03471888 0.22349951 -6.18506574 -0.61850657 0 0 Z " fill="#05FF8C" transform="translate(260,26)"/>
<path d="M0 0 C1.98 0 3.96 0 6 0 C6 2.64 6 5.28 6 8 C7.98 8 9.96 8 12 8 C12 9.65 12 11.3 12 13 C10.02 13 8.04 13 6 13 C6.33 20.59 6.66 28.18 7 36 C8.65 36.33 10.3 36.66 12 37 C12 38.65 12 40.3 12 42 C10.14375 42.1546875 10.14375 42.1546875 8.25 42.3125 C7.55390625 42.37050781 6.8578125 42.42851563 6.140625 42.48828125 C4 42 4 42 1.75 40.25 C-0.96703343 35.20408077 -0.42106293 30.31612819 -0.25 24.6875 C-0.23195313 23.56537109 -0.21390625 22.44324219 -0.1953125 21.28710938 C-0.14827856 18.52386553 -0.08256317 15.76237302 0 13 C-1.98 13 -3.96 13 -6 13 C-6 11.35 -6 9.7 -6 8 C-4.02 8 -2.04 8 0 8 C0 5.36 0 2.72 0 0 Z " fill="#505050" transform="translate(14,32)"/>
<path d="M0 0 C1.98 0 3.96 0 6 0 C6.33 0.66 6.66 1.32 7 2 C7.556875 1.67 8.11375 1.34 8.6875 1 C11.30284522 -0.1309601 13.1806646 -0.15662974 16 0 C16 1.65 16 3.3 16 5 C14.88625 5.12375 13.7725 5.2475 12.625 5.375 C8.96896323 5.6465813 8.96896323 5.6465813 7 8 C6.62826984 10.6182767 6.62826984 10.6182767 6.5859375 13.6640625 C6.54726562 14.78554688 6.50859375 15.90703125 6.46875 17.0625 C6.4378125 18.238125 6.406875 19.41375 6.375 20.625 C6.33632812 21.80835937 6.29765625 22.99171875 6.2578125 24.2109375 C6.16331155 27.14046691 6.07775442 30.06998597 6 33 C4.02 33 2.04 33 0 33 C0 22.11 0 11.22 0 0 Z " fill="#525252" transform="translate(156,40)"/>
<path d="M0 0 C1.98 0 3.96 0 6 0 C6.33 0.66 6.66 1.32 7 2 C7.556875 1.67 8.11375 1.34 8.6875 1 C11.30284522 -0.1309601 13.1806646 -0.15662974 16 0 C16 1.65 16 3.3 16 5 C14.88625 5.12375 13.7725 5.2475 12.625 5.375 C8.96896323 5.6465813 8.96896323 5.6465813 7 8 C6.62826984 10.6182767 6.62826984 10.6182767 6.5859375 13.6640625 C6.54726562 14.78554688 6.50859375 15.90703125 6.46875 17.0625 C6.4378125 18.238125 6.406875 19.41375 6.375 20.625 C6.33632812 21.80835937 6.29765625 22.99171875 6.2578125 24.2109375 C6.16331155 27.14046691 6.07775442 30.06998597 6 33 C4.02 33 2.04 33 0 33 C0 22.11 0 11.22 0 0 Z " fill="#525252" transform="translate(68,40)"/>
<path d="M0 0 C1.98 0 3.96 0 6 0 C6.33 0.66 6.66 1.32 7 2 C7.556875 1.67 8.11375 1.34 8.6875 1 C11.30284522 -0.1309601 13.1806646 -0.15662974 16 0 C16 1.65 16 3.3 16 5 C14.88625 5.12375 13.7725 5.2475 12.625 5.375 C8.96896323 5.6465813 8.96896323 5.6465813 7 8 C6.62826984 10.6182767 6.62826984 10.6182767 6.5859375 13.6640625 C6.54726563 14.78554688 6.50859375 15.90703125 6.46875 17.0625 C6.4378125 18.238125 6.406875 19.41375 6.375 20.625 C6.33632813 21.80835937 6.29765625 22.99171875 6.2578125 24.2109375 C6.16331155 27.14046691 6.07775442 30.06998597 6 33 C4.02 33 2.04 33 0 33 C0 22.11 0 11.22 0 0 Z " fill="#525252" transform="translate(47,40)"/>
<path d="M0 0 C1.65 0 3.3 0 5 0 C5 10.89 5 21.78 5 33 C3.35 33 1.7 33 0 33 C0 22.11 0 11.22 0 0 Z " fill="#444444" transform="translate(33,40)"/>
<path d="M0 0 C0.98484375 0.02707031 1.9696875 0.05414063 2.984375 0.08203125 C3.73203125 0.11683594 4.4796875 0.15164062 5.25 0.1875 C5.67838802 3.95731461 5.71603029 5.60120382 3.3125 8.625 C-0.88855864 10.76839727 -4.23983766 10.27776652 -8.75 9.1875 C-9.75 8.1875 -9.75 8.1875 -10.0625 5.8125 C-9.75 3.1875 -9.75 3.1875 -8.08984375 1.53515625 C-5.18242785 -0.13939882 -3.33013541 -0.11893341 0 0 Z " fill="#F7F7F7" transform="translate(104.75,58.8125)"/>
<path d="M0 0 C2.4375 2.25 2.4375 2.25 4 5 C4 6.32 4 7.64 4 9 C-1.28 9 -6.56 9 -12 9 C-11 3 -11 3 -9.375 1.125 C-5.99250368 -0.4772351 -3.69401119 -0.52771588 0 0 Z " fill="#F8F8F8" transform="translate(194,45)"/>
<path d="M0 0 C1.67542976 0.28604898 3.34385343 0.61781233 5 1 C4.67 2.32 4.34 3.64 4 5 C2.68 5.33 1.36 5.66 0 6 C-0.38218767 4.34385343 -0.71395102 2.67542976 -1 1 C-0.67 0.67 -0.34 0.34 0 0 Z " fill="#4A4A4A" transform="translate(34,28)"/>
</svg>
